<mxfile host="app.diagrams.net" modified="2023-12-12T06:44:09.397Z" agent="Mozilla/5.0 (Windows NT 10.0; Win64; x64) AppleWebKit/537.36 (KHTML, like Gecko) Chrome/109.0.0.0 Safari/537.36" etag="PS2xS6UAVEt0bG1a-rEA" version="22.1.7" type="github">
  <diagram name="Page-1" id="74e2e168-ea6b-b213-b513-2b3c1d86103e">
    <mxGraphModel dx="1050" dy="523" grid="1" gridSize="10" guides="1" tooltips="1" connect="1" arrows="1" fold="1" page="1" pageScale="1" pageWidth="1100" pageHeight="850" background="none" math="0" shadow="0">
      <root>
        <mxCell id="0" />
        <mxCell id="1" parent="0" />
        <mxCell id="77e6c97f196da883-1" value="MD115_Compare Flow" style="swimlane;html=1;childLayout=stackLayout;startSize=20;rounded=0;shadow=0;labelBackgroundColor=none;strokeWidth=1;fontFamily=Verdana;fontSize=8;align=center;" parent="1" vertex="1">
          <mxGeometry x="60" y="50" width="770" height="830" as="geometry" />
        </mxCell>
        <mxCell id="77e6c97f196da883-2" value="RDS" style="swimlane;html=1;startSize=20;" parent="77e6c97f196da883-1" vertex="1">
          <mxGeometry y="20" width="180" height="810" as="geometry" />
        </mxCell>
        <mxCell id="77e6c97f196da883-8" value="&lt;font style=&quot;font-size: 11px;&quot;&gt;Connect&lt;br&gt;to RDS by connect string&amp;nbsp;&lt;/font&gt;" style="rounded=1;whiteSpace=wrap;html=1;shadow=0;labelBackgroundColor=none;strokeWidth=1;fontFamily=Verdana;fontSize=8;align=center;" parent="77e6c97f196da883-2" vertex="1">
          <mxGeometry x="40" y="50" width="100" height="60" as="geometry" />
        </mxCell>
        <mxCell id="77e6c97f196da883-9" value="&lt;font style=&quot;font-size: 10px;&quot;&gt;ResultData1= query&lt;br&gt;data from tables: “efa.MD115_FAILURE_DTL”, “efa.MD_CONTACT”, “efa.MD_EQUIP_FAILURE”&lt;/font&gt;" style="rounded=1;whiteSpace=wrap;html=1;shadow=0;labelBackgroundColor=none;strokeWidth=1;fontFamily=Verdana;fontSize=8;align=left;" parent="77e6c97f196da883-2" vertex="1">
          <mxGeometry x="30" y="140" width="140" height="95" as="geometry" />
        </mxCell>
        <mxCell id="77e6c97f196da883-3" value="Snowflake" style="swimlane;html=1;startSize=20;" parent="77e6c97f196da883-1" vertex="1">
          <mxGeometry x="180" y="20" width="260" height="810" as="geometry" />
        </mxCell>
        <mxCell id="77e6c97f196da883-11" value="&lt;font style=&quot;font-size: 10px;&quot;&gt;Connect to Snowflake by connect string&amp;nbsp;&lt;/font&gt;" style="rounded=1;whiteSpace=wrap;html=1;shadow=0;labelBackgroundColor=none;strokeWidth=1;fontFamily=Verdana;fontSize=8;align=left;" parent="77e6c97f196da883-3" vertex="1">
          <mxGeometry x="75" y="160" width="100" height="60" as="geometry" />
        </mxCell>
        <mxCell id="-GJumvi6T49nXN_w-6vD-1" value="&lt;font style=&quot;font-size: 10px;&quot;&gt;process and insert ResultData1&amp;nbsp;&amp;nbsp;to table “sandbox_ds.AHSC_METRICS.MDCOMP”&lt;/font&gt;" style="rounded=1;whiteSpace=wrap;html=1;shadow=0;labelBackgroundColor=none;strokeWidth=1;fontFamily=Verdana;fontSize=8;align=center;" vertex="1" parent="77e6c97f196da883-3">
          <mxGeometry x="10" y="280" width="230" height="70" as="geometry" />
        </mxCell>
        <mxCell id="-GJumvi6T49nXN_w-6vD-2" value="&lt;font style=&quot;font-size: 10px;&quot;&gt;ResultData2 = Query data from&amp;nbsp; tables: “RAILINC_PRD.CRB.INBOUND_FILE”, “RAILINC_PRD.CRB.INBOUND_FILE_DETAIL”,&lt;br&gt;“RAILINC_PRD.CRB.JOB_CODES”&lt;/font&gt;" style="rounded=1;whiteSpace=wrap;html=1;shadow=0;labelBackgroundColor=none;strokeWidth=1;fontFamily=Verdana;fontSize=8;align=left;" vertex="1" parent="77e6c97f196da883-3">
          <mxGeometry x="10" y="390" width="230" height="70" as="geometry" />
        </mxCell>
        <mxCell id="77e6c97f196da883-10" value="&lt;font style=&quot;font-size: 10px;&quot;&gt;Process&amp;nbsp;&lt;span style=&quot;&quot;&gt;and insert ResultData2 to &quot;sandbox_ds.AHSC_METRICS.CRBCOMP&quot; table&lt;/span&gt;&lt;/font&gt;" style="rounded=1;whiteSpace=wrap;html=1;shadow=0;labelBackgroundColor=none;strokeWidth=1;fontFamily=Verdana;fontSize=8;align=left;" parent="77e6c97f196da883-3" vertex="1">
          <mxGeometry x="21.25" y="490" width="207.5" height="60" as="geometry" />
        </mxCell>
        <mxCell id="-GJumvi6T49nXN_w-6vD-4" value="&lt;font style=&quot;font-size: 10px;&quot;&gt;- Create or replace table “sandbox_ds.AHSC_METRICS.MDCRBCOMPARE&lt;span style=&quot;background-color: initial;&quot;&gt;”&amp;nbsp;&lt;br&gt;&lt;/span&gt;&lt;span style=&quot;background-color: initial;&quot;&gt;- process and insert data from table “sandbox_ds.AHSC_METRICS.MDCOMP” full join&lt;/span&gt;&lt;span style=&quot;background-color: initial;&quot;&gt;“sandbox_ds.AHSC_METRICS.CRBCOMP”&lt;/span&gt;&lt;span style=&quot;background-color: initial;&quot;&gt;&lt;br&gt;&lt;/span&gt;&lt;/font&gt;" style="rounded=1;whiteSpace=wrap;html=1;shadow=0;labelBackgroundColor=none;strokeWidth=1;fontFamily=Verdana;fontSize=8;align=left;" vertex="1" parent="77e6c97f196da883-3">
          <mxGeometry x="10" y="590" width="230" height="90" as="geometry" />
        </mxCell>
        <mxCell id="-GJumvi6T49nXN_w-6vD-5" value="&lt;font style=&quot;font-size: 10px;&quot;&gt;- Create or replace table “sandbox_ds.AHSC_METRICS.MDCRBCOMPARE2”&amp;nbsp; -process and insert data from table “sandbox_ds.AHSC_METRICS.MDCRBCOMPARE”&lt;/font&gt;" style="rounded=1;whiteSpace=wrap;html=1;shadow=0;labelBackgroundColor=none;strokeWidth=1;fontFamily=Verdana;fontSize=8;align=left;" vertex="1" parent="77e6c97f196da883-3">
          <mxGeometry x="5" y="710" width="250" height="60" as="geometry" />
        </mxCell>
        <mxCell id="77e6c97f196da883-4" value="Excel" style="swimlane;html=1;startSize=20;" parent="77e6c97f196da883-1" vertex="1">
          <mxGeometry x="440" y="20" width="330" height="810" as="geometry" />
        </mxCell>
        <mxCell id="-GJumvi6T49nXN_w-6vD-9" value="&lt;font style=&quot;font-size: 10px;&quot;&gt;Process and export data from table“sandbox_ds.AHSC_METRICS.MDCRBCOMPARE2” &amp;nbsp;to “Missing MD115.xlsx” and “MD-115 - CRB Data”&lt;span style=&quot;background-color: initial;&quot;&gt;&lt;br&gt;&lt;/span&gt;&lt;/font&gt;" style="rounded=1;whiteSpace=wrap;html=1;shadow=0;labelBackgroundColor=none;strokeWidth=1;fontFamily=Verdana;fontSize=8;align=left;" vertex="1" parent="77e6c97f196da883-4">
          <mxGeometry x="40" y="695" width="275" height="90" as="geometry" />
        </mxCell>
      </root>
    </mxGraphModel>
  </diagram>
</mxfile>
